<svg id="Capa_1" enable-background="new 0 0 512 512" height="512" viewBox="0 0 512 512" width="512" xmlns="http://www.w3.org/2000/svg"><g><path d="m195.5 0h-140c-30.327 0-55 24.673-55 55v222c0 30.505 24.88 55 54.935 55h140.065c30.327 0 55-24.673 55-55v-222c0-30.327-24.673-55-55-55z" fill="#e4edef"/><path d="m250.5 55v222c0 30.33-24.67 55-55 55h-70v-332h70c30.33 0 55 24.67 55 55z" fill="#bfdfe7"/><path d="m511.5 447c0 35.84-29.16 65-65 65h-261c-41.35 0-75-33.65-75-75v-135h-15v-45h-65v-181h190v181h-65v45h-15v135c0 24.81 20.19 45 45 45h261c19.3 0 35-15.7 35-35s-15.7-35-35-35h-50c-35.84 0-65-29.16-65-65v-112.92c9.584 3.891 20.399 3.898 30 0v112.92c0 19.3 15.7 35 35 35h50c35.84 0 65 29.16 65 65z" fill="#f26376"/><path d="m511.5 447c0 35.84-29.16 65-65 65h-261c-24.51 0-46.31-11.82-60-30.06v-405.94h95v181h-65v45h-15v135c0 24.81 20.19 45 45 45h261c19.3 0 35-15.7 35-35s-15.7-35-35-35h-50c-35.84 0-65-29.16-65-65v-112.92c9.58 3.89 20.4 3.9 30 0v112.92c0 19.3 15.7 35 35 35h50c35.84 0 65 29.16 65 65z" fill="#db375a"/><path d="m150.5 157h-10v-10c0-8.284-6.716-15-15-15s-15 6.716-15 15v10h-10c-8.284 0-15 6.716-15 15s6.716 15 15 15h10v10c0 8.284 6.716 15 15 15s15-6.716 15-15v-10h10c8.284 0 15-6.716 15-15s-6.716-15-15-15z" fill="#e4edef"/><path d="m165.5 172c0 8.28-6.72 15-15 15h-10v10c0 8.28-6.72 15-15 15v-80c8.28 0 15 6.72 15 15v10h10c8.28 0 15 6.72 15 15z" fill="#bfdfe7"/><path d="m361.5 62v46.83h-29.97s-.03-13.83-.03-46.83c0-8.28 6.72-15 15-15s15 6.72 15 15z" fill="#e4edef"/><path d="m391.5 138v59c0 24.81-20.19 45-45 45s-45-20.19-45-45v-59c0-3.98 1.58-7.79 4.39-10.61l25.39-25.39h30.44l25.39 25.39c2.81 2.82 4.39 6.63 4.39 10.61z" fill="#63c6f8"/></g></svg>